<svg width="5" height="12" viewBox="0 0 5 12" fill="none" xmlns="http://www.w3.org/2000/svg">
<path fill-rule="evenodd" clip-rule="evenodd" d="M2 4.50021C2 4.77635 2.22386 5.00021 2.5 5.00021C2.77614 5.00021 3 4.77635 3 4.50021V1.70711L4.14645 2.85355C4.34171 3.04882 4.65829 3.04882 4.85355 2.85355C5.04882 2.65829 5.04882 2.34171 4.85355 2.14645L2.85355 0.146447C2.75979 0.0526787 2.63261 0 2.5 0C2.36739 0 2.24021 0.0526788 2.14645 0.146447L0.146447 2.14645C-0.0488154 2.34171 -0.0488154 2.65829 0.146447 2.85355C0.341709 3.04882 0.658292 3.04882 0.853554 2.85355L2 1.70711V4.50021ZM3 7.5C3 7.22385 2.77614 7 2.5 7C2.22386 7 2 7.22385 2 7.5L2 10.2931L0.853553 9.14665C0.658291 8.95139 0.341709 8.95139 0.146447 9.14665C-0.0488155 9.34191 -0.0488156 9.6585 0.146447 9.85376L2.14645 11.8538C2.24021 11.9475 2.36739 12.0002 2.5 12.0002C2.63261 12.0002 2.75978 11.9475 2.85355 11.8538L4.85355 9.85376C5.04882 9.6585 5.04882 9.34192 4.85355 9.14665C4.65829 8.95139 4.34171 8.95139 4.14645 9.14665L3 10.2931L3 7.5Z" fill="#02A0E0"/>
</svg>