<svg width="24" height="22" viewBox="0 0 24 22" fill="none" xmlns="http://www.w3.org/2000/svg">
<path fill-rule="evenodd" clip-rule="evenodd" d="M12.1973 2.14926L12.2062 2.14464L12.2156 2.14946L16.963 4.99792L18.6023 5.9856V17.7438C18.6023 18.376 18.6007 18.7219 18.5804 18.9705L18.5779 18.9986L18.5498 19.001C18.3012 19.0213 17.9553 19.023 17.3231 19.023H7.08939C6.45718 19.023 6.11125 19.0213 5.86269 19.001L5.83458 18.9986L5.83214 18.9705C5.81183 18.7219 5.81017 18.376 5.81017 17.7438V5.98563L7.44348 5.00157L12.1973 2.14926ZM6.34498 3.17432L0.997695 6.38269C0.492853 6.6856 0.32915 7.34041 0.632056 7.84525C0.934961 8.35009 1.58977 8.51379 2.09461 8.21089L3.67815 7.26077V17.7438C3.67815 18.9378 3.67815 19.5349 3.91052 19.9909C4.11493 20.3921 4.44109 20.7182 4.84225 20.9227C5.29832 21.155 5.89534 21.155 7.08939 21.155H17.3231C18.5172 21.155 19.1142 21.155 19.5702 20.9227C19.9714 20.7182 20.2976 20.3921 20.502 19.9909C20.7343 19.5349 20.7343 18.9378 20.7343 17.7438V7.26073L22.3179 8.21089C22.8228 8.51379 23.4776 8.35009 23.7805 7.84525C24.0834 7.34041 23.9197 6.6856 23.4149 6.38269L18.0614 3.17063L13.9667 0.70358C13.669 0.524213 13.4405 0.386569 13.2469 0.283067C13.2017 0.257791 13.1558 0.234283 13.1094 0.212541C12.9482 0.133913 12.8086 0.0815764 12.6651 0.0499544C12.3628 -0.0166519 12.0497 -0.0166515 11.7474 0.0499556C11.6036 0.0816602 11.4635 0.134187 11.3019 0.213156C11.2563 0.234541 11.2112 0.25763 11.1668 0.282422C10.9729 0.385998 10.7442 0.52384 10.4458 0.703578L6.34498 3.17432Z" fill="#685EE7"/>
<path fill-rule="evenodd" clip-rule="evenodd" d="M13.2721 19.0226V14.7586C13.2721 14.1698 12.7948 13.6926 12.2061 13.6926C11.6174 13.6926 11.1401 14.1698 11.1401 14.7586V19.0226H13.2721ZM12.2061 11.5605C10.4399 11.5605 9.00806 12.9924 9.00806 14.7586V21.1547H15.4041V14.7586C15.4041 12.9924 13.9723 11.5605 12.2061 11.5605Z" fill="#7CABC0"/>
</svg>
