<svg width="43" height="56" viewBox="0 0 43 56" fill="none" xmlns="http://www.w3.org/2000/svg">
<path d="M30.485 0H1.463C0.655 0 0 0.655 0 1.926V55C0 55.345 0.655 56 1.463 56H41.537C42.345 56 43 55.345 43 55V12.978C43 12.282 42.907 12.058 42.743 11.893L31.107 0.257C30.942 0.093 30.718 0 30.485 0Z" fill="#E4E4E4"/>
<path d="M31 0.150391V11.9994H42.849L31 0.150391Z" fill="#C7C7CF"/>
<path d="M12 13H6C5.448 13 5 12.552 5 12C5 11.448 5.448 11 6 11H12C12.552 11 13 11.448 13 12C13 12.552 12.552 13 12 13Z" fill="#8697CB"/>
<path d="M15 18H6C5.448 18 5 17.552 5 17C5 16.448 5.448 16 6 16H15C15.552 16 16 16.448 16 17C16 17.552 15.552 18 15 18Z" fill="#8697CB"/>
<path d="M19 17.9992C18.74 17.9992 18.48 17.8892 18.29 17.7092C18.11 17.5192 18 17.2592 18 16.9992C18 16.7392 18.11 16.4792 18.29 16.2892C18.66 15.9192 19.34 15.9192 19.71 16.2892C19.89 16.4792 20 16.7392 20 16.9992C20 17.2592 19.89 17.5192 19.71 17.7092C19.52 17.8892 19.26 17.9992 19 17.9992Z" fill="#8697CB"/>
<path d="M31 18H23C22.448 18 22 17.552 22 17C22 16.448 22.448 16 23 16H31C31.552 16 32 16.448 32 17C32 17.552 31.552 18 31 18Z" fill="#8697CB"/>
<path d="M6 32.9992C5.74 32.9992 5.48 32.8892 5.29 32.7092C5.11 32.5192 5 32.2592 5 31.9992C5 31.7392 5.11 31.4792 5.29 31.2892C5.66 30.9192 6.34 30.9192 6.71 31.2892C6.89 31.4792 7 31.7292 7 31.9992C7 32.2592 6.89 32.5192 6.71 32.7092C6.52 32.8892 6.26 32.9992 6 32.9992Z" fill="#8697CB"/>
<path d="M18 33H10C9.448 33 9 32.552 9 32C9 31.448 9.448 31 10 31H18C18.552 31 19 31.448 19 32C19 32.552 18.552 33 18 33Z" fill="#8697CB"/>
<path d="M37 18H35C34.448 18 34 17.552 34 17C34 16.448 34.448 16 35 16H37C37.552 16 38 16.448 38 17C38 17.552 37.552 18 37 18Z" fill="#8697CB"/>
<path d="M28 23H6C5.448 23 5 22.552 5 22C5 21.448 5.448 21 6 21H28C28.552 21 29 21.448 29 22C29 22.552 28.552 23 28 23Z" fill="#8697CB"/>
<path d="M37 23H31C30.448 23 30 22.552 30 22C30 21.448 30.448 21 31 21H37C37.552 21 38 21.448 38 22C38 22.552 37.552 23 37 23Z" fill="#8697CB"/>
<path d="M10 28H6C5.448 28 5 27.552 5 27C5 26.448 5.448 26 6 26H10C10.552 26 11 26.448 11 27C11 27.552 10.552 28 10 28Z" fill="#8697CB"/>
<path d="M24 28H14C13.448 28 13 27.552 13 27C13 26.448 13.448 26 14 26H24C24.552 26 25 26.448 25 27C25 27.552 24.552 28 24 28Z" fill="#8697CB"/>
<path d="M37 28H28C27.448 28 27 27.552 27 27C27 26.448 27.448 26 28 26H37C37.552 26 38 26.448 38 27C38 27.552 37.552 28 37 28Z" fill="#8697CB"/>
<path d="M41.537 56H1.463C0.655 56 0 55.345 0 54.537V39H43V54.537C43 55.345 42.345 56 41.537 56Z" fill="#685EE7"/>
<path d="M17.0002 47.6818C17.0002 48.5108 16.9112 49.2198 16.7332 49.8078C16.5552 50.3958 16.3302 50.8878 16.0562 51.2848C15.7822 51.6818 15.4752 51.9938 15.1332 52.2218C14.7912 52.4498 14.4612 52.6198 14.1422 52.7348C13.8232 52.8488 13.5312 52.9218 13.2672 52.9538C13.0032 52.9838 12.8072 52.9998 12.6802 52.9998H8.86621V42.9238H11.9002C12.7482 42.9238 13.4932 43.0588 14.1352 43.3268C14.7772 43.5948 15.3112 43.9538 15.7352 44.3998C16.1592 44.8458 16.4752 45.3548 16.6852 45.9238C16.8952 46.4938 17.0002 47.0798 17.0002 47.6818ZM12.1332 51.7968C13.2452 51.7968 14.0472 51.4418 14.5392 50.7308C15.0312 50.0198 15.2772 48.9898 15.2772 47.6408C15.2772 47.2218 15.2272 46.8068 15.1272 46.3968C15.0262 45.9868 14.8332 45.6158 14.5462 45.2828C14.2592 44.9498 13.8692 44.6808 13.3772 44.4758C12.8852 44.2708 12.2472 44.1678 11.4632 44.1678H10.5062V51.7968H12.1332Z" fill="white"/>
<path d="M26.9751 47.9138C26.9751 48.7618 26.8681 49.5088 26.6541 50.1558C26.4401 50.8028 26.1431 51.3408 25.7651 51.7688C25.3871 52.1978 24.9451 52.5208 24.4391 52.7398C23.9331 52.9588 23.3791 53.0678 22.7781 53.0678C22.1771 53.0678 21.6231 52.9588 21.1171 52.7398C20.6111 52.5208 20.1691 52.1978 19.7911 51.7688C19.4131 51.3398 19.1161 50.8028 18.9021 50.1558C18.6881 49.5088 18.5811 48.7608 18.5811 47.9138C18.5811 47.0668 18.6881 46.3208 18.9021 45.6788C19.1161 45.0358 19.4121 44.5008 19.7911 44.0728C20.1691 43.6438 20.6111 43.3188 21.1171 43.0948C21.6231 42.8708 22.1771 42.7598 22.7781 42.7598C23.3791 42.7598 23.9331 42.8708 24.4391 43.0948C24.9451 43.3188 25.3871 43.6438 25.7651 44.0728C26.1431 44.5018 26.4391 45.0368 26.6541 45.6788C26.8671 46.3208 26.9751 47.0658 26.9751 47.9138ZM22.7361 51.7288C23.0731 51.7288 23.3941 51.6628 23.7001 51.5308C24.0051 51.3988 24.2791 51.1818 24.5201 50.8818C24.7611 50.5808 24.9511 50.1868 25.0871 49.6988C25.2231 49.2108 25.2961 48.6168 25.3061 47.9148C25.2971 47.2308 25.2261 46.6498 25.0941 46.1718C24.9621 45.6928 24.7801 45.2988 24.5471 44.9888C24.3141 44.6788 24.0501 44.4558 23.7541 44.3188C23.4581 44.1818 23.1461 44.1138 22.8171 44.1138C22.4801 44.1138 22.1581 44.1768 21.8531 44.3048C21.5471 44.4328 21.2741 44.6488 21.0331 44.9538C20.7911 45.2598 20.6021 45.6528 20.4661 46.1368C20.3301 46.6208 20.2561 47.2118 20.2471 47.9138C20.2561 48.5978 20.3271 49.1808 20.4591 49.6638C20.5911 50.1468 20.7731 50.5408 21.0061 50.8468C21.2391 51.1528 21.5031 51.3748 21.7991 51.5168C22.0961 51.6578 22.4081 51.7288 22.7361 51.7288Z" fill="white"/>
<path d="M36.1074 51.9748C35.7334 52.3388 35.3094 52.6128 34.8364 52.7948C34.3624 52.9778 33.8524 53.0678 33.3054 53.0678C32.7034 53.0678 32.1504 52.9588 31.6444 52.7398C31.1384 52.5208 30.6964 52.1978 30.3184 51.7688C29.9404 51.3398 29.6434 50.8028 29.4294 50.1558C29.2154 49.5088 29.1084 48.7608 29.1084 47.9138C29.1084 47.0668 29.2154 46.3208 29.4294 45.6788C29.6434 45.0358 29.9394 44.5008 30.3184 44.0728C30.6964 43.6438 31.1404 43.3188 31.6514 43.0948C32.1614 42.8708 32.7134 42.7598 33.3054 42.7598C33.8524 42.7598 34.3624 42.8508 34.8364 43.0328C35.3104 43.2158 35.7334 43.4888 36.1074 43.8528L34.9724 44.8648C34.7444 44.5998 34.4914 44.4088 34.2134 44.2908C33.9354 44.1728 33.6464 44.1128 33.3454 44.1128C33.0084 44.1128 32.6864 44.1758 32.3814 44.3038C32.0754 44.4318 31.8024 44.6478 31.5614 44.9528C31.3194 45.2588 31.1304 45.6518 30.9944 46.1358C30.8584 46.6198 30.7844 47.2108 30.7754 47.9128C30.7844 48.5968 30.8554 49.1798 30.9874 49.6628C31.1194 50.1458 31.3014 50.5398 31.5344 50.8458C31.7674 51.1518 32.0314 51.3738 32.3274 51.5158C32.6234 51.6578 32.9354 51.7278 33.2644 51.7278C33.5934 51.7278 33.9004 51.6678 34.1874 51.5498C34.4744 51.4318 34.7364 51.2398 34.9734 50.9758L36.1074 51.9748Z" fill="white"/>
</svg>
