<svg width="11" height="11" viewBox="0 0 11 11" fill="none" xmlns="http://www.w3.org/2000/svg">
<path d="M0.458374 6.875H10.5417V10.0833C10.5417 10.5896 10.1313 11 9.62504 11H1.37504C0.868779 11 0.458374 10.5896 0.458374 10.0833V6.875Z" fill="white" fill-opacity="0.33"/>
<path fill-rule="evenodd" clip-rule="evenodd" d="M5.95833 0.458333C5.95833 0.205203 5.75313 0 5.5 0C5.24687 0 5.04167 0.205203 5.04167 0.458333L5.04167 3.93534L4.44909 3.34277C4.2701 3.16378 3.9799 3.16378 3.80091 3.34277C3.62192 3.52176 3.62192 3.81196 3.80091 3.99095L5.17591 5.36595C5.26186 5.4519 5.37844 5.50019 5.5 5.50019C5.62156 5.50019 5.73814 5.4519 5.82409 5.36595L7.19909 3.99095C7.37808 3.81196 7.37808 3.52176 7.19909 3.34277C7.0201 3.16378 6.7299 3.16378 6.55091 3.34277L5.95833 3.93534L5.95833 0.458333ZM1.375 0.916667C0.615607 0.916667 0 1.53228 0 2.29167V6.41667C0 7.17606 0.615609 7.79167 1.375 7.79167H9.625C10.3844 7.79167 11 7.17606 11 6.41667V2.29167C11 1.53227 10.3844 0.916667 9.625 0.916667H8.47917C8.22604 0.916667 8.02083 1.12187 8.02083 1.375C8.02083 1.62813 8.22604 1.83333 8.47917 1.83333H9.625C9.87813 1.83333 10.0833 2.03854 10.0833 2.29167V6.41667C10.0833 6.6698 9.87813 6.875 9.625 6.875H1.375C1.12187 6.875 0.916667 6.6698 0.916667 6.41667V2.29167C0.916667 2.03854 1.12187 1.83333 1.375 1.83333H2.51429C2.76742 1.83333 2.97262 1.62813 2.97262 1.375C2.97262 1.12187 2.76742 0.916667 2.51429 0.916667H1.375Z" fill="white"/>
</svg>
