<svg xmlns="http://www.w3.org/2000/svg" width="24.167" height="23.794" viewBox="0 0 24.167 23.794">
  <g id="Group3" transform="translate(-0.417 -0.416)">
    <path id="Path_5" data-name="Path 5" d="M19.75,3.437a.6.6,0,0,0-.6-.6H5.854a.6.6,0,0,0-.6.6V19.783a.55.55,0,0,0,.8.492,3.625,3.625,0,0,1,3.242,0l2.672,1.336a1.208,1.208,0,0,0,1.081,0l2.672-1.336a3.625,3.625,0,0,1,3.242,0,.55.55,0,0,0,.8-.492Zm2.417,20.168a.6.6,0,0,1-.874.54l-3.419-1.709a1.208,1.208,0,0,0-1.081,0l-2.672,1.336a3.625,3.625,0,0,1-3.242,0L8.207,22.436a1.208,1.208,0,0,0-1.081,0L3.707,24.146a.6.6,0,0,1-.874-.54V.416H22.166Z" fill="#fff" fill-rule="evenodd"/>
    <path id="Path_6" data-name="Path 6" d="M8.875,5.25a1.208,1.208,0,1,0,0,2.417h2.417a1.208,1.208,0,0,0,0-2.417Z" fill="rgba(255,255,255,0.33)"/>
    <path id="Path_7" data-name="Path 7" d="M16.125,5.25a1.208,1.208,0,1,0,1.208,1.208A1.208,1.208,0,0,0,16.125,5.25Z" fill="rgba(255,255,255,0.33)"/>
    <path id="Path_8" data-name="Path 8" d="M7.667,11.292a1.208,1.208,0,0,1,1.208-1.208h2.417a1.208,1.208,0,0,1,0,2.417H8.875A1.208,1.208,0,0,1,7.667,11.292Z" fill="rgba(255,255,255,0.33)"/>
    <path id="Path_9" data-name="Path 9" d="M16.125,10.083a1.208,1.208,0,1,0,1.208,1.208A1.208,1.208,0,0,0,16.125,10.083Z" fill="rgba(255,255,255,0.33)"/>
    <path id="Path_10" data-name="Path 10" d="M7.667,16.125a1.208,1.208,0,0,1,1.208-1.208h2.417a1.208,1.208,0,1,1,0,2.417H8.875A1.208,1.208,0,0,1,7.667,16.125Z" fill="rgba(255,255,255,0.33)"/>
    <path id="Path_11" data-name="Path 11" d="M16.125,14.917a1.208,1.208,0,1,0,1.208,1.208A1.208,1.208,0,0,0,16.125,14.917Z" fill="rgba(255,255,255,0.33)"/>
    <path id="Path_12" data-name="Path 12" d="M.417,1.624A1.208,1.208,0,0,1,1.625.416h21.75a1.208,1.208,0,1,1,0,2.417H1.625A1.208,1.208,0,0,1,.417,1.624Z" fill="rgba(255,255,255,0.33)"/>
  </g>
</svg>
