<svg xmlns="http://www.w3.org/2000/svg" width="26.19" height="18.667" viewBox="0 0 26.19 18.667">
  <g id="Group2" transform="translate(-0.905 -0.666)">
    <path id="Path_3" data-name="Path 3" d="M14,17c4.813,0,8.236-3.024,10.24-5.543a2.3,2.3,0,0,0,0-2.914C22.236,6.024,18.813,3,14,3S5.764,6.024,3.76,8.543a2.3,2.3,0,0,0,0,2.914C5.764,13.975,9.187,17,14,17Zm12.066-4.09a4.629,4.629,0,0,0,0-5.819C23.886,4.351,19.864.666,14,.666S4.114,4.351,1.934,7.09a4.628,4.628,0,0,0,0,5.819c2.18,2.739,6.2,6.424,12.066,6.424S23.886,15.648,26.066,12.909Z" fill="#fff" fill-rule="evenodd"/>
    <path id="Path_4" data-name="Path 4" d="M16.333,10a2.333,2.333,0,0,1-4.667,0q0-.05,0-.1A1.751,1.751,0,0,0,13.9,7.669l.1,0A2.333,2.333,0,0,1,16.333,10Zm2.333,0A4.667,4.667,0,1,1,14,5.334,4.667,4.667,0,0,1,18.666,10Z" fill="rgba(255,255,255,0.33)" fill-rule="evenodd"/>
  </g>
</svg>
