<svg width="18" height="22" viewBox="0 0 18 22" fill="none" xmlns="http://www.w3.org/2000/svg">
<path d="M4 2C1.79086 2 0 3.79086 0 6V18C0 20.2091 1.79086 22 4 22H14C16.2091 22 18 20.2091 18 18V6C18 3.79086 16.2091 2 14 2V4C15.1046 4 16 4.89543 16 6V18C16 19.1046 15.1046 20 14 20H4C2.89543 20 2 19.1046 2 18V6C2 4.89543 2.89543 4 4 4V2Z" fill="#808191"/>
<path d="M5 10C5.55229 10 6 9.55229 6 9C6 8.44771 5.55229 8 5 8C4.44772 8 4 8.44771 4 9C4 9.55229 4.44772 10 5 10Z" fill="#C7C7CF"/>
<path d="M9 8C8.44772 8 8 8.44771 8 9C8 9.55229 8.44772 10 9 10H13C13.5523 10 14 9.55229 14 9C14 8.44771 13.5523 8 13 8H9Z" fill="#C7C7CF"/>
<path d="M9 12C8.44772 12 8 12.4477 8 13C8 13.5523 8.44772 14 9 14H13C13.5523 14 14 13.5523 14 13C14 12.4477 13.5523 12 13 12H9Z" fill="#C7C7CF"/>
<path d="M8 17C8 16.4477 8.44771 16 9 16H11C11.5523 16 12 16.4477 12 17C12 17.5523 11.5523 18 11 18H9C8.44771 18 8 17.5523 8 17Z" fill="#C7C7CF"/>
<path d="M6 13C6 13.5523 5.55229 14 5 14C4.44772 14 4 13.5523 4 13C4 12.4477 4.44772 12 5 12C5.55229 12 6 12.4477 6 13Z" fill="#C7C7CF"/>
<path d="M5 18C5.55229 18 6 17.5523 6 17C6 16.4477 5.55229 16 5 16C4.44772 16 4 16.4477 4 17C4 17.5523 4.44772 18 5 18Z" fill="#C7C7CF"/>
<path fill-rule="evenodd" clip-rule="evenodd" d="M12 2H6C5.44772 2 5 2.44772 5 3C5 3.55228 5.44772 4 6 4H12C12.5523 4 13 3.55228 13 3C13 2.44772 12.5523 2 12 2ZM6 0C4.34315 0 3 1.34315 3 3C3 4.65685 4.34315 6 6 6H12C13.6569 6 15 4.65685 15 3C15 1.34315 13.6569 0 12 0H6Z" fill="#C7C7CF"/>
</svg>
