<svg width="30" height="30" viewBox="0 0 30 30" fill="none" xmlns="http://www.w3.org/2000/svg">
<path fill-rule="evenodd" clip-rule="evenodd" d="M3.75 6.25C3.75 3.48858 5.98858 1.25 8.75 1.25H19.1789C20.505 1.25 21.7768 1.77678 22.7145 2.71447L24.7855 4.78554C25.7232 5.72322 26.25 6.99499 26.25 8.32107V23.75C26.25 26.5114 24.0114 28.75 21.25 28.75H8.75C5.98858 28.75 3.75 26.5114 3.75 23.75V6.25ZM23.75 10V23.75C23.75 25.1307 22.6307 26.25 21.25 26.25H8.75C7.36929 26.25 6.25 25.1307 6.25 23.75V6.25C6.25 4.86929 7.36929 3.75 8.75 3.75H17.5V6.25C17.5 8.32107 19.1789 10 21.25 10H23.75ZM23.6113 7.5C23.4886 7.147 23.2871 6.82259 23.0178 6.5533L20.9467 4.48223C20.6774 4.21294 20.353 4.01143 20 3.88868V6.25C20 6.94036 20.5596 7.5 21.25 7.5H23.6113Z" fill="white"/>
<path d="M13.75 15C13.75 14.3096 14.3096 13.75 15 13.75C15.6904 13.75 16.25 14.3096 16.25 15V21.25C16.25 21.9404 15.6904 22.5 15 22.5C14.3096 22.5 13.75 21.9404 13.75 21.25V15Z" fill="white" fill-opacity="0.33"/>
<path d="M8.75 18.75C8.75 18.0596 9.30964 17.5 10 17.5C10.6904 17.5 11.25 18.0596 11.25 18.75V21.25C11.25 21.9404 10.6904 22.5 10 22.5C9.30964 22.5 8.75 21.9404 8.75 21.25V18.75Z" fill="white" fill-opacity="0.33"/>
<path d="M20 16.25C19.3096 16.25 18.75 16.8096 18.75 17.5V21.25C18.75 21.9404 19.3096 22.5 20 22.5C20.6904 22.5 21.25 21.9404 21.25 21.25V17.5C21.25 16.8096 20.6904 16.25 20 16.25Z" fill="white" fill-opacity="0.33"/>
</svg>
