<svg width="20" height="20" viewBox="0 0 20 20" fill="none" xmlns="http://www.w3.org/2000/svg">
<path fill-rule="evenodd" clip-rule="evenodd" d="M15.5 2C15.0478 2 14.4089 2.0625 13.7438 2.15359C13.4566 2.19293 13.2773 2.3928 13.2546 2.65495C13.1315 4.07946 13 6.43537 13 10C13 13.5646 13.1315 15.9205 13.2546 17.345C13.2773 17.6072 13.4566 17.8071 13.7438 17.8464C14.4089 17.9375 15.0478 18 15.5 18C15.9522 18 16.5911 17.9375 17.2562 17.8464C17.5434 17.8071 17.7227 17.6072 17.7454 17.345C17.8685 15.9205 18 13.5646 18 10C18 6.43537 17.8685 4.07946 17.7454 2.65495C17.7227 2.3928 17.5434 2.19293 17.2562 2.15359C16.5911 2.0625 15.9522 2 15.5 2ZM13.4724 0.172092C12.2725 0.336423 11.3664 1.27603 11.2621 2.48263C11.1332 3.97301 11 6.38715 11 10C11 13.6129 11.1332 16.027 11.2621 17.5174C11.3664 18.724 12.2725 19.6636 13.4724 19.8279C14.1606 19.9222 14.9082 20 15.5 20C16.0918 20 16.8394 19.9222 17.5276 19.8279C18.7275 19.6636 19.6336 18.724 19.7379 17.5174C19.8668 16.027 20 13.6129 20 10C20 6.38715 19.8668 3.97302 19.7379 2.48263C19.6336 1.27603 18.7275 0.336423 17.5276 0.172092C16.8394 0.0778385 16.0918 0 15.5 0C14.9082 0 14.1606 0.0778385 13.4724 0.172092Z" fill="#808191"/>
<path fill-rule="evenodd" clip-rule="evenodd" d="M4.5 2C4.04782 2 3.40893 2.0625 2.74381 2.15359C2.45659 2.19293 2.27732 2.3928 2.25465 2.65495C2.13145 4.07946 2 6.43537 2 10C2 13.5646 2.13145 15.9205 2.25465 17.345C2.27732 17.6072 2.45659 17.8071 2.74381 17.8464C3.40893 17.9375 4.04782 18 4.5 18C4.95218 18 5.59107 17.9375 6.25619 17.8464C6.54341 17.8071 6.72268 17.6072 6.74535 17.345C6.86855 15.9205 7 13.5646 7 10C7 6.43537 6.86855 4.07946 6.74535 2.65495C6.72268 2.3928 6.54341 2.19293 6.25619 2.15359C5.59107 2.0625 4.95218 2 4.5 2ZM2.47244 0.172092C1.27253 0.336423 0.36644 1.27603 0.262087 2.48263C0.133191 3.97301 0 6.38715 0 10C0 13.6129 0.133191 16.027 0.262087 17.5174C0.36644 18.724 1.27253 19.6636 2.47244 19.8279C3.16065 19.9222 3.90816 20 4.5 20C5.09184 20 5.83935 19.9222 6.52756 19.8279C7.72747 19.6636 8.63356 18.724 8.73791 17.5174C8.86681 16.027 9 13.6129 9 10C9 6.38715 8.86681 3.97302 8.73791 2.48263C8.63356 1.27603 7.72747 0.336423 6.52756 0.172092C5.83935 0.0778385 5.09184 0 4.5 0C3.90816 0 3.16065 0.0778385 2.47244 0.172092Z" fill="#C7C7CF"/>
</svg>
