<svg width="24" height="24" viewBox="0 0 24 24" fill="none" xmlns="http://www.w3.org/2000/svg">
<path d="M4.26639 14.9336C4.2631 15.0371 4.26782 15.1424 4.28112 15.2488L4.70933 18.6745C4.87545 20.0034 6.00516 21.0007 7.34447 21.0007C8.81114 21.0007 10.0001 19.8118 10.0001 18.3451V15.2834C9.34602 15.1245 8.67599 15.0316 8.00011 15.0072V18.3451C8.00011 18.7072 7.70657 19.0007 7.34447 19.0007C7.01381 19.0007 6.7349 18.7545 6.69389 18.4264L6.26568 15.0007C8.7426 15.0007 6.2464 15.0007 5 15.0007C4.74941 15.0007 4.50421 14.9777 4.26639 14.9336Z" fill="#C7C7CF"/>
<path fill-rule="evenodd" clip-rule="evenodd" d="M7.63932 8.99938H5C3.89543 8.99938 3 9.89481 3 10.9994C3 12.1039 3.89543 12.9994 5 12.9994H7.63932C9.50226 12.9994 11.3396 13.4331 13.0059 14.2663L18.5528 17.0397C19.2177 17.3722 20 16.8887 20 16.1453V5.85348C20 5.1101 19.2177 4.6266 18.5528 4.95905L13.0059 7.7325C11.3396 8.56564 9.50226 8.99938 7.63932 8.99938ZM5 6.99938C2.79086 6.99938 1 8.79024 1 10.9994C1 13.2085 2.79086 14.9994 5 14.9994H7.63932C9.19177 14.9994 10.7229 15.3608 12.1115 16.0551L17.6584 18.8286C19.6531 19.8259 22 18.3754 22 16.1453V5.85348C22 3.62333 19.6531 2.17285 17.6584 3.1702L12.1115 5.94365C10.7229 6.63793 9.19177 6.99938 7.63932 6.99938H5Z" fill="#808191"/>
<path d="M11 15.5812C10.3518 15.3499 9.68156 15.1862 9 15.0926V6.90659C9.68156 6.81298 10.3518 6.64926 11 6.41797V15.5812Z" fill="#C7C7CF"/>
<path d="M22 12.9152C22.5826 12.7093 23 12.1537 23 11.5006V10.5006C23 9.84748 22.5826 9.29186 22 9.08594V12.9152Z" fill="#C7C7CF"/>
</svg>
