<svg width="43" height="56" viewBox="0 0 43 56" fill="none" xmlns="http://www.w3.org/2000/svg">
<path d="M30.485 0H1.463C0.655 0 0 0.655 0 1.926V55C0 55.345 0.655 56 1.463 56H41.537C42.345 56 43 55.345 43 55V12.978C43 12.282 42.907 12.058 42.743 11.893L31.107 0.257C30.942 0.093 30.718 0 30.485 0Z" fill="#E4E4E4"/>
<path d="M31 0.150391V11.9994H42.849L31 0.150391Z" fill="#C7C7CF"/>
<path d="M13.0142 33.3242C12.6662 33.3242 12.3322 33.2112 12.0472 32.9982C11.0062 32.2172 10.8662 31.3482 10.9322 30.7562C11.1142 29.1282 13.1272 27.4242 16.9172 25.6882C18.4212 22.3922 19.8522 18.3312 20.7052 14.9382C19.7072 12.7662 18.7372 9.9482 19.4442 8.2952C19.6922 7.7162 20.0012 7.2722 20.5782 7.0802C20.8062 7.0042 21.3822 6.9082 21.5942 6.9082C22.0982 6.9082 22.5412 7.5572 22.8552 7.9572C23.1502 8.3332 23.8192 9.1302 22.4822 14.7592C23.8302 17.5432 25.7402 20.3792 27.5702 22.3212C28.8812 22.0842 30.0092 21.9632 30.9282 21.9632C32.4942 21.9632 33.4432 22.3282 33.8302 23.0802C34.1502 23.7022 34.0192 24.4292 33.4402 25.2402C32.8832 26.0192 32.1152 26.4312 31.2202 26.4312C30.0042 26.4312 28.5882 25.6632 27.0092 24.1462C24.1722 24.7392 20.8592 25.7972 18.1812 26.9682C17.3452 28.7422 16.5442 30.1712 15.7982 31.2192C14.7732 32.6542 13.8892 33.3242 13.0142 33.3242ZM15.6762 28.1982C13.5392 29.3992 12.6682 30.3862 12.6052 30.9422C12.5952 31.0342 12.5682 31.2762 13.0362 31.6342C13.1852 31.5872 14.0552 31.1902 15.6762 28.1982ZM29.3132 23.7562C30.1282 24.3832 30.3272 24.7002 30.8602 24.7002C31.0942 24.7002 31.7612 24.6902 32.0702 24.2592C32.2192 24.0502 32.2772 23.9162 32.3002 23.8442C32.1772 23.7792 32.0142 23.6472 31.1252 23.6472C30.6202 23.6482 29.9852 23.6702 29.3132 23.7562ZM21.8432 17.1742C21.1282 19.6482 20.1842 22.3192 19.1692 24.7382C21.2592 23.9272 23.5312 23.2192 25.6652 22.7182C24.3152 21.1502 22.9662 19.1922 21.8432 17.1742ZM21.2362 8.7122C21.1382 8.7452 19.9062 10.4692 21.3322 11.9282C22.2812 9.8132 21.2792 8.6982 21.2362 8.7122Z" fill="#FA3F25"/>
<path d="M41.537 56H1.463C0.655 56 0 55.345 0 54.537V39H43V54.537C43 55.345 42.345 56 41.537 56Z" fill="#FA3F25"/>
<path d="M10.8851 52.9998H9.24414V42.9238H12.1421C12.5701 42.9238 12.9941 42.9918 13.4131 43.1288C13.8321 43.2658 14.2081 43.4708 14.5411 43.7438C14.8741 44.0168 15.1431 44.3478 15.3481 44.7348C15.5531 45.1218 15.6561 45.5568 15.6561 46.0408C15.6561 46.5518 15.5691 47.0138 15.3961 47.4288C15.2231 47.8438 14.9811 48.1928 14.6711 48.4748C14.3611 48.7568 13.9871 48.9758 13.5501 49.1308C13.1131 49.2858 12.6291 49.3628 12.1011 49.3628H10.8841V52.9998H10.8851ZM10.8851 44.1678V48.1598H12.3891C12.5891 48.1598 12.7871 48.1258 12.9841 48.0568C13.1801 47.9888 13.3601 47.8768 13.5241 47.7218C13.6881 47.5668 13.8201 47.3508 13.9201 47.0728C14.0201 46.7948 14.0701 46.4508 14.0701 46.0408C14.0701 45.8768 14.0471 45.6868 14.0021 45.4738C13.9561 45.2598 13.8631 45.0548 13.7221 44.8588C13.5801 44.6628 13.3821 44.4988 13.1271 44.3668C12.8721 44.2348 12.5341 44.1688 12.1151 44.1688H10.8851V44.1678Z" fill="white"/>
<path d="M25.719 47.6818C25.719 48.5108 25.63 49.2198 25.452 49.8078C25.274 50.3958 25.049 50.8878 24.775 51.2848C24.501 51.6818 24.194 51.9938 23.852 52.2218C23.51 52.4498 23.18 52.6198 22.861 52.7348C22.542 52.8488 22.25 52.9218 21.986 52.9538C21.722 52.9838 21.526 52.9998 21.398 52.9998H17.584V42.9238H20.619C21.467 42.9238 22.212 43.0588 22.854 43.3268C23.496 43.5948 24.03 43.9538 24.454 44.3998C24.878 44.8458 25.194 45.3548 25.404 45.9238C25.614 46.4938 25.719 47.0798 25.719 47.6818ZM20.852 51.7968C21.964 51.7968 22.766 51.4418 23.258 50.7308C23.75 50.0198 23.996 48.9898 23.996 47.6408C23.996 47.2218 23.946 46.8068 23.846 46.3968C23.745 45.9868 23.552 45.6158 23.265 45.2828C22.978 44.9498 22.588 44.6808 22.096 44.4758C21.604 44.2708 20.966 44.1678 20.182 44.1678H19.225V51.7968H20.852Z" fill="white"/>
<path d="M29.7661 44.1678V47.3398H33.9771V48.4608H29.7661V52.9998H28.0981V42.9238H34.4001V44.1678H29.7661Z" fill="white"/>
</svg>
