<svg width="20" height="20" viewBox="0 0 20 20" fill="none" xmlns="http://www.w3.org/2000/svg">
<path fill-rule="evenodd" clip-rule="evenodd" d="M9.99996 3.33268C8.3731 3.33268 6.87343 3.46685 5.66971 3.62583C4.5864 3.7689 3.76951 4.58579 3.62644 5.6691C3.46746 6.87282 3.33329 8.37249 3.33329 9.99935C3.33329 11.6262 3.46746 13.1259 3.62644 14.3296C3.76951 15.4129 4.5864 16.2298 5.66971 16.3729C6.87343 16.5318 8.3731 16.666 9.99996 16.666C11.6268 16.666 13.1265 16.5318 14.3302 16.3729C15.4135 16.2298 16.2304 15.4129 16.3735 14.3296C16.5325 13.1259 16.6666 11.6262 16.6666 9.99935C16.6666 8.37249 16.5325 6.87282 16.3735 5.6691C16.2304 4.58579 15.4135 3.7689 14.3302 3.62583C13.1265 3.46685 11.6268 3.33268 9.99996 3.33268ZM5.45149 1.97351C3.62083 2.21529 2.2159 3.62022 1.97412 5.45088C1.8079 6.70942 1.66663 8.28374 1.66663 9.99935C1.66663 11.715 1.8079 13.2893 1.97412 14.5478C2.2159 16.3785 3.62083 17.7834 5.45149 18.0252C6.71003 18.1914 8.28435 18.3327 9.99996 18.3327C11.7156 18.3327 13.2899 18.1914 14.5484 18.0252C16.3791 17.7834 17.784 16.3785 18.0258 14.5478C18.192 13.2893 18.3333 11.715 18.3333 9.99935C18.3333 8.28374 18.192 6.70942 18.0258 5.45088C17.784 3.62022 16.3791 2.21529 14.5484 1.97351C13.2899 1.80729 11.7156 1.66602 9.99996 1.66602C8.28435 1.66602 6.71003 1.80729 5.45149 1.97351Z" fill="white"/>
<path fill-rule="evenodd" clip-rule="evenodd" d="M10 14.1673C10.4603 14.1673 10.8334 13.7942 10.8334 13.334V10.834H13.3334C13.7936 10.834 14.1667 10.4609 14.1667 10.0007C14.1667 9.54041 13.7936 9.16732 13.3334 9.16732H10.8334V6.66732C10.8334 6.20708 10.4603 5.83398 10 5.83398C9.5398 5.83398 9.16671 6.20708 9.16671 6.66732V9.16732H6.66671C6.20647 9.16732 5.83337 9.54041 5.83337 10.0007C5.83337 10.4609 6.20647 10.834 6.66671 10.834H9.16671V13.334C9.16671 13.7942 9.5398 14.1673 10 14.1673Z" fill="white" fill-opacity="0.33"/>
</svg>
