<svg width="16" height="24" viewBox="0 0 16 24" fill="none" xmlns="http://www.w3.org/2000/svg">
<path fill-rule="evenodd" clip-rule="evenodd" d="M13.3386 12.2873L8.35795 9.36652C7.90487 9.10083 7.73535 8.52938 7.97024 8.0596C8.22839 7.5433 8.86947 7.35312 9.3674 7.64512L14.2331 10.4984C15.3749 11.0693 15.9231 12.393 15.5195 13.6041C15.0258 15.085 13.3349 15.7854 11.9386 15.0873L9.55284 13.8944C9.05887 13.6474 8.85864 13.0467 9.10563 12.5528C9.35262 12.0588 9.95329 11.8585 10.4473 12.1055L12.8331 13.2984C13.1407 13.4523 13.5133 13.2979 13.6221 12.9716C13.711 12.7047 13.5902 12.4131 13.3386 12.2873Z" fill="#808191"/>
<path fill-rule="evenodd" clip-rule="evenodd" d="M4.59093 8L2.3636 17.6518C2.27877 18.0193 2.40801 18.4033 2.6978 18.6448L5.35972 20.8631C5.73056 21.1721 6.26924 21.1721 6.64008 20.8631L9.302 18.6448C9.59179 18.4033 9.72103 18.0193 9.6362 17.6518L7.40887 8H4.59093ZM9.17878 6.77514C9.07407 6.32141 8.67004 6 8.20439 6H3.79541C3.32976 6 2.92573 6.32141 2.82102 6.77514L0.414815 17.202C0.160346 18.3047 0.548054 19.4568 1.41743 20.1813L4.07935 22.3995C5.19188 23.3267 6.80791 23.3267 7.92045 22.3995L10.5824 20.1813C11.4517 19.4568 11.8395 18.3047 11.585 17.202L9.17878 6.77514Z" fill="#C7C7CF"/>
<path fill-rule="evenodd" clip-rule="evenodd" d="M8.39452 2H3.60562C3.27127 2 2.95904 2.1671 2.77357 2.4453L2.71727 2.52976C2.50291 2.8513 2.493 3.26758 2.69183 3.59895L3.84115 5.5145C4.02187 5.8157 4.34738 6 4.69864 6H7.3015C7.65276 6 7.97827 5.8157 8.15899 5.51449L9.30832 3.59895C9.50714 3.26758 9.49724 2.8513 9.28288 2.52976L9.22657 2.4453C9.0411 2.1671 8.72887 2 8.39452 2ZM3.60562 0C2.60256 0 1.66587 0.501303 1.10947 1.3359L1.05317 1.42036C0.410079 2.38499 0.380363 3.63382 0.976839 4.62795L2.12616 6.54349C2.66833 7.4471 3.64485 8 4.69864 8H7.3015C8.35529 8 9.33181 7.4471 9.87398 6.54349L11.0233 4.62795C11.6198 3.63382 11.5901 2.38499 10.947 1.42036L10.8907 1.3359C10.3343 0.501303 9.39758 0 8.39452 0H3.60562Z" fill="#808191"/>
</svg>
