<svg width="20" height="21" viewBox="0 0 20 21" fill="none" xmlns="http://www.w3.org/2000/svg">
<path fill-rule="evenodd" clip-rule="evenodd" d="M17 19C17.5523 19 18 18.5523 18 18C18 17.4477 17.5523 17 17 17C16.4477 17 16 17.4477 16 18C16 18.5523 16.4477 19 17 19ZM17 21C18.6569 21 20 19.6569 20 18C20 16.3431 18.6569 15 17 15C15.3431 15 14 16.3431 14 18C14 19.6569 15.3431 21 17 21Z" fill="#C7C7CF"/>
<path fill-rule="evenodd" clip-rule="evenodd" d="M13.5 3C12.1193 3 11 4.11929 11 5.5V16.5C11 18.9853 8.98528 21 6.5 21C4.01472 21 2 18.9853 2 16.5V9C2 8.44772 2.44772 8 3 8C3.55228 8 4 8.44772 4 9V16.5C4 17.8807 5.11929 19 6.5 19C7.88071 19 9 17.8807 9 16.5V5.5C9 3.01472 11.0147 1 13.5 1C15.9853 1 18 3.01472 18 5.5V12C18 12.5523 17.5523 13 17 13C16.4477 13 16 12.5523 16 12V5.5C16 4.11929 14.8807 3 13.5 3Z" fill="#808191"/>
<path d="M2.13619 1.4805C2.52207 0.818998 3.47787 0.818999 3.86375 1.4805L5.62271 4.49587C6.0116 5.16253 5.53073 5.99974 4.75893 5.99974H1.24101C0.469217 5.99974 -0.0116539 5.16253 0.377229 4.49587L2.13619 1.4805Z" fill="#C7C7CF"/>
</svg>
