<svg width="24" height="16" viewBox="0 0 24 16" fill="none" xmlns="http://www.w3.org/2000/svg">
<path fill-rule="evenodd" clip-rule="evenodd" d="M20 2H4C2.89543 2 2 2.89543 2 4V12C2 13.1046 2.89543 14 4 14H20C21.1046 14 22 13.1046 22 12V4C22 2.89543 21.1046 2 20 2ZM4 0C1.79086 0 0 1.79086 0 4V12C0 14.2091 1.79086 16 4 16H20C22.2091 16 24 14.2091 24 12V4C24 1.79086 22.2091 0 20 0H4Z" fill="#808191"/>
<path d="M23 6C23 6.55228 22.5523 7 22 7C19.2386 7 17 4.76142 17 2C17 1.44772 17.4477 1 18 1C18.5523 1 19 1.44772 19 2C19 3.65685 20.3431 5 22 5C22.5523 5 23 5.44772 23 6Z" fill="#C7C7CF"/>
<path d="M2 9C1.44772 9 1 9.44771 1 10C1 10.5523 1.44772 11 2 11C3.65685 11 5 12.3431 5 14C5 14.5523 5.44772 15 6 15C6.55228 15 7 14.5523 7 14C7 11.2386 4.76142 9 2 9Z" fill="#C7C7CF"/>
<path d="M22 9C22.5523 9 23 9.44771 23 10C23 10.5523 22.5523 11 22 11C20.3431 11 19 12.3431 19 14C19 14.5523 18.5523 15 18 15C17.4477 15 17 14.5523 17 14C17 11.2386 19.2386 9 22 9Z" fill="#C7C7CF"/>
<path d="M2 7C1.44772 7 1 6.55228 1 6C1 5.44772 1.44772 5 2 5C3.65685 5 5 3.65685 5 2C5 1.44772 5.44772 1 6 1C6.55228 1 7 1.44772 7 2C7 4.76142 4.76142 7 2 7Z" fill="#C7C7CF"/>
<path fill-rule="evenodd" clip-rule="evenodd" d="M12 10C13.1046 10 14 9.10457 14 8C14 6.89543 13.1046 6 12 6C10.8954 6 10 6.89543 10 8C10 9.10457 10.8954 10 12 10ZM12 12C14.2091 12 16 10.2091 16 8C16 5.79086 14.2091 4 12 4C9.79086 4 8 5.79086 8 8C8 10.2091 9.79086 12 12 12Z" fill="#C7C7CF"/>
</svg>
