<svg width="20" height="20" viewBox="0 0 20 20" fill="none" xmlns="http://www.w3.org/2000/svg">
<path fill-rule="evenodd" clip-rule="evenodd" d="M10 2.66732C8.04777 2.66732 6.24816 2.81491 4.80371 2.98978C3.50372 3.14716 2.52346 4.04573 2.35177 5.23738C2.16101 6.56147 2 8.2111 2 10.0007C2 11.7902 2.161 13.4398 2.35177 14.7639C2.52346 15.9556 3.50372 16.8541 4.80371 17.0115C6.24816 17.1864 8.04777 17.334 10 17.334C11.9522 17.334 13.7518 17.1864 15.1963 17.0115C16.4963 16.8541 17.4765 15.9556 17.6482 14.7639C17.839 13.4398 18 11.7902 18 10.0007C18 8.2111 17.839 6.56147 17.6482 5.23738C17.4765 4.04573 16.4963 3.14716 15.1963 2.98978C13.7518 2.81491 11.9522 2.66732 10 2.66732ZM4.54184 1.17223C2.34504 1.43818 0.659124 2.98361 0.368993 4.99734C0.169534 6.38173 0 8.11349 0 10.0007C0 11.8878 0.169534 13.6196 0.368993 15.004C0.659124 17.0177 2.34504 18.5631 4.54184 18.8291C6.05208 19.0119 7.94127 19.1673 10 19.1673C12.0587 19.1673 13.9479 19.0119 15.4582 18.8291C17.655 18.5631 19.3409 17.0177 19.631 15.004C19.8305 13.6196 20 11.8878 20 10.0007C20 8.11349 19.8305 6.38173 19.631 4.99734C19.3409 2.98361 17.655 1.43818 15.4582 1.17223C13.9479 0.989391 12.0587 0.833984 10 0.833984C7.94127 0.833984 6.05208 0.989391 4.54184 1.17223Z" fill="#808191"/>
<path fill-rule="evenodd" clip-rule="evenodd" d="M7 10.0007C7 10.5069 6.55228 10.9173 6 10.9173C5.44772 10.9173 5 10.5069 5 10.0007C5 9.49439 5.44772 9.08398 6 9.08398C6.55228 9.08398 7 9.49439 7 10.0007ZM11 10.0007C11 10.5069 10.5523 10.9173 10 10.9173C9.44771 10.9173 9 10.5069 9 10.0007C9 9.49439 9.44771 9.08398 10 9.08398C10.5523 9.08398 11 9.49439 11 10.0007ZM14 10.9173C14.5523 10.9173 15 10.5069 15 10.0007C15 9.49439 14.5523 9.08398 14 9.08398C13.4477 9.08398 13 9.49439 13 10.0007C13 10.5069 13.4477 10.9173 14 10.9173Z" fill="#C7C7CF"/>
</svg>
