<svg width="20" height="20" viewBox="0 0 20 20" fill="none" xmlns="http://www.w3.org/2000/svg">
<path fill-rule="evenodd" clip-rule="evenodd" d="M16 2.5C16 2.22386 15.7761 2 15.5 2H4.5C4.22386 2 4 2.22386 4 2.5V16.0279C4 16.366 4.35589 16.586 4.65836 16.4348C5.50294 16.0125 6.49706 16.0125 7.34164 16.4348L9.55279 17.5403C9.83431 17.6811 10.1657 17.6811 10.4472 17.5403L12.6584 16.4348C13.5029 16.0125 14.4971 16.0125 15.3416 16.4348C15.6441 16.586 16 16.366 16 16.0279V2.5ZM18 19.191C18 19.5627 17.6088 19.8044 17.2764 19.6382L14.4472 18.2236C14.1657 18.0828 13.8343 18.0828 13.5528 18.2236L11.3416 19.3292C10.4971 19.7515 9.50294 19.7515 8.65836 19.3292L6.44721 18.2236C6.16569 18.0828 5.83431 18.0828 5.55279 18.2236L2.72361 19.6382C2.39116 19.8044 2 19.5627 2 19.191V0H18V19.191Z" fill="#808191"/>
<path d="M7 4C6.44772 4 6 4.44772 6 5C6 5.55228 6.44772 6 7 6H9C9.55228 6 10 5.55228 10 5C10 4.44772 9.55228 4 9 4H7Z" fill="#C7C7CF"/>
<path d="M13 4C12.4477 4 12 4.44772 12 5C12 5.55228 12.4477 6 13 6C13.5523 6 14 5.55228 14 5C14 4.44772 13.5523 4 13 4Z" fill="#C7C7CF"/>
<path d="M6 9C6 8.44772 6.44772 8 7 8H9C9.55228 8 10 8.44772 10 9C10 9.55228 9.55228 10 9 10H7C6.44772 10 6 9.55228 6 9Z" fill="#C7C7CF"/>
<path d="M13 8C12.4477 8 12 8.44772 12 9C12 9.55228 12.4477 10 13 10C13.5523 10 14 9.55228 14 9C14 8.44772 13.5523 8 13 8Z" fill="#C7C7CF"/>
<path d="M6 13C6 12.4477 6.44772 12 7 12H9C9.55228 12 10 12.4477 10 13C10 13.5523 9.55228 14 9 14H7C6.44772 14 6 13.5523 6 13Z" fill="#C7C7CF"/>
<path d="M13 12C12.4477 12 12 12.4477 12 13C12 13.5523 12.4477 14 13 14C13.5523 14 14 13.5523 14 13C14 12.4477 13.5523 12 13 12Z" fill="#C7C7CF"/>
<path d="M0 1C0 0.447715 0.447715 0 1 0H19C19.5523 0 20 0.447715 20 1C20 1.55228 19.5523 2 19 2H1C0.447716 2 0 1.55228 0 1Z" fill="#C7C7CF"/>
</svg>
