<svg width="43" height="56" viewBox="0 0 43 56" fill="none" xmlns="http://www.w3.org/2000/svg">
<path d="M30.485 0H1.463C0.655 0 0 0.655 0 1.926V55C0 55.345 0.655 56 1.463 56H41.537C42.345 56 43 55.345 43 55V12.978C43 12.282 42.907 12.058 42.743 11.893L31.107 0.257C30.942 0.093 30.718 0 30.485 0Z" fill="#E4E4E4"/>
<path d="M31 0.150391V11.9994H42.849L31 0.150391Z" fill="#808191"/>
<path d="M41.537 56H1.463C0.655 56 0 55.345 0 54.537V39H43V54.537C43 55.345 42.345 56 41.537 56Z" fill="#808191"/>
<path d="M18.7664 42.9238V44.2498L13.9674 51.4548L13.6944 51.6738H18.7664V52.9998H12.0674V51.6738L16.8664 44.4688L17.1534 44.2498H12.0674V42.9238H18.7664Z" fill="white"/>
<path d="M22.7715 52.9998H21.1035V42.9238H22.7715V52.9998Z" fill="white"/>
<path d="M26.9144 52.9998H25.2734V42.9238H28.1714C28.5994 42.9238 29.0234 42.9918 29.4424 43.1288C29.8614 43.2658 30.2374 43.4708 30.5704 43.7438C30.9034 44.0168 31.1724 44.3478 31.3774 44.7348C31.5824 45.1218 31.6854 45.5568 31.6854 46.0408C31.6854 46.5518 31.5984 47.0138 31.4254 47.4288C31.2524 47.8438 31.0104 48.1928 30.7004 48.4748C30.3904 48.7568 30.0164 48.9758 29.5794 49.1308C29.1424 49.2858 28.6584 49.3628 28.1304 49.3628H26.9134V52.9998H26.9144ZM26.9144 44.1678V48.1598H28.4184C28.6184 48.1598 28.8164 48.1258 29.0134 48.0568C29.2094 47.9888 29.3894 47.8768 29.5534 47.7218C29.7174 47.5668 29.8494 47.3508 29.9494 47.0728C30.0494 46.7948 30.0994 46.4508 30.0994 46.0408C30.0994 45.8768 30.0764 45.6868 30.0314 45.4738C29.9854 45.2598 29.8924 45.0548 29.7514 44.8588C29.6094 44.6628 29.4114 44.4988 29.1564 44.3668C28.9014 44.2348 28.5634 44.1688 28.1444 44.1688H26.9144V44.1678Z" fill="white"/>
<path d="M22 24V22H24V20H22V18H24V16H22V14H24V12H22V10H24V8H22V6H20V8H18V10H20V12H18V14H20V16H18V18H20V20H18V22H20V24H16V29C16 31.757 18.243 34 21 34C23.757 34 26 31.757 26 29V24H22ZM24 29C24 30.654 22.654 32 21 32C19.346 32 18 30.654 18 29V26H24V29Z" fill="#808191"/>
<path d="M20 30H22C22.552 30 23 29.553 23 29C23 28.447 22.552 28 22 28H20C19.448 28 19 28.447 19 29C19 29.553 19.448 30 20 30Z" fill="#808191"/>
</svg>
