<svg xmlns="http://www.w3.org/2000/svg" xmlns:xlink="http://www.w3.org/1999/xlink" width="349.946" height="125.157" viewBox="0 0 349.946 125.157">
  <defs>
    <linearGradient id="linear-gradient" x1="1" y1="0.5" x2="0" y2="0.5" gradientUnits="objectBoundingBox">
      <stop offset="0" stop-color="#ed4825"/>
      <stop offset="1" stop-color="#fdd702"/>
    </linearGradient>
    <linearGradient id="linear-gradient-2" x1="0.843" y1="1" x2="0.157" gradientUnits="objectBoundingBox">
      <stop offset="0" stop-color="#18a845"/>
      <stop offset="1" stop-color="#d7dd04"/>
    </linearGradient>
    <linearGradient id="linear-gradient-3" x1="0.299" y1="1" x2="0.701" gradientUnits="objectBoundingBox">
      <stop offset="0" stop-color="#016eb6"/>
      <stop offset="1" stop-color="#00b3ef"/>
    </linearGradient>
    <linearGradient id="linear-gradient-4" x1="0.5" x2="0.5" y2="1" gradientUnits="objectBoundingBox">
      <stop offset="0" stop-color="#131466"/>
      <stop offset="1" stop-color="#1477bd"/>
    </linearGradient>
  </defs>
  <g id="Group_110" data-name="Group 110" transform="translate(-27.727 -16.424)">
    <g id="Group_108" data-name="Group 108" transform="translate(-922.273 -907.605)">
      <path id="Path_2" data-name="Path 2" d="M-1617.835-402.031h0Zm0,1.021a7.89,7.89,0,0,1-5.8-2.36,7.89,7.89,0,0,1-2.36-5.8v-36.742h20.412a7.712,7.712,0,0,1,5.741,2.424,7.712,7.712,0,0,1,2.424,5.741h-8.165a3.923,3.923,0,0,0-1.212-2.87,3.923,3.923,0,0,0-2.87-1.212h-8.165v32.66a4.111,4.111,0,0,0,1.148,2.934,4.111,4.111,0,0,0,2.934,1.148h8.165v-4.082h8.165v8.165Zm24.494,0V-450h8.165v8.165a4.112,4.112,0,0,0,1.148,2.934,4.111,4.111,0,0,0,2.934,1.148h8.165a7.712,7.712,0,0,1,5.741,2.424,7.712,7.712,0,0,1,2.424,5.741v28.577h-8.165v-28.577a3.923,3.923,0,0,0-1.212-2.87,3.923,3.923,0,0,0-2.87-1.212h-4.083a8.081,8.081,0,0,1-4.082-1.021v33.681Zm48.989-4.083a4.033,4.033,0,0,0,2.87-1.148,4,4,0,0,0,1.212-2.934v-13.268a8.31,8.31,0,0,1-4.083,1.021h-4.082a4,4,0,0,0-2.934,1.212,4.033,4.033,0,0,0-1.148,2.87v12.247Zm-16.33,4.083v-16.33a7.815,7.815,0,0,1,2.36-5.741,7.784,7.784,0,0,1,5.8-2.424h8.165a4.033,4.033,0,0,0,2.87-1.148,4,4,0,0,0,1.212-2.934,3.923,3.923,0,0,0-1.212-2.87,3.923,3.923,0,0,0-2.87-1.212h-4.082a4,4,0,0,0-2.934,1.212,4.033,4.033,0,0,0-1.148,2.87h-8.165a7.815,7.815,0,0,1,2.36-5.741,7.784,7.784,0,0,1,5.8-2.424h12.247a7.711,7.711,0,0,1,5.741,2.424,7.712,7.712,0,0,1,2.424,5.741v20.412a7.785,7.785,0,0,1-2.424,5.8,7.814,7.814,0,0,1-5.741,2.36Zm32.659,0v-36.742h20.412a7.711,7.711,0,0,1,5.741,2.424,2.532,2.532,0,0,1,.319.383l.383-.383a7.785,7.785,0,0,1,5.8-2.424h8.165a7.711,7.711,0,0,1,5.741,2.424,7.711,7.711,0,0,1,2.424,5.741v28.577h-8.165v-28.577a3.923,3.923,0,0,0-1.212-2.87,3.923,3.923,0,0,0-2.87-1.212h-4.083a4,4,0,0,0-2.934,1.212,4.033,4.033,0,0,0-1.148,2.87v28.577h-8.165v-28.577a3.923,3.923,0,0,0-1.212-2.87,3.923,3.923,0,0,0-2.87-1.212h-4.082a4,4,0,0,0-2.934,1.212,4.033,4.033,0,0,0-1.148,2.87v28.577Zm69.4-16.33a4.034,4.034,0,0,0,2.871-1.148,4,4,0,0,0,1.212-2.934v-8.165a3.923,3.923,0,0,0-1.212-2.87,3.923,3.923,0,0,0-2.871-1.212h-8.165v16.33Zm-8.165,16.33a7.89,7.89,0,0,1-5.8-2.36,7.89,7.89,0,0,1-2.36-5.8v-28.577h20.412a7.712,7.712,0,0,1,5.741,2.424,7.712,7.712,0,0,1,2.424,5.741v8.165a7.785,7.785,0,0,1-2.424,5.8,7.815,7.815,0,0,1-5.741,2.36h-12.247v4.083a4.112,4.112,0,0,0,1.148,2.934,4.111,4.111,0,0,0,2.934,1.148h12.247v4.083Zm24.494,0V-450h8.165v48.99Zm28.577-16.33a4.033,4.033,0,0,0,2.87-1.148,4,4,0,0,0,1.212-2.934v-8.165a3.923,3.923,0,0,0-1.212-2.87,3.923,3.923,0,0,0-2.87-1.212h-8.165v16.33Zm-8.165,16.33a7.89,7.89,0,0,1-5.8-2.36,7.89,7.89,0,0,1-2.36-5.8v-28.577h20.412a7.711,7.711,0,0,1,5.741,2.424,7.712,7.712,0,0,1,2.424,5.741v8.165a7.785,7.785,0,0,1-2.424,5.8,7.814,7.814,0,0,1-5.741,2.36h-12.247v4.083a4.112,4.112,0,0,0,1.148,2.934,4.112,4.112,0,0,0,2.934,1.148h12.247v4.083Zm117.247,0v-36.742h20.412a7.711,7.711,0,0,1,5.741,2.424,7.712,7.712,0,0,1,2.424,5.741v28.577h-8.165v-28.577a3.923,3.923,0,0,0-1.212-2.87,3.923,3.923,0,0,0-2.87-1.212h-4.082a4,4,0,0,0-2.934,1.212,4.034,4.034,0,0,0-1.148,2.87v28.577Z" transform="translate(2576 1421.285)"/>
      <path id="Path_1" data-name="Path 1" d="M-1192.6-126.185h2.177v-15.241h-2.177Zm19.857-15.241v11.366l-9.145-11.366h-1.786v15.241h2.177V-137.55l9.145,11.366h1.785v-15.241Zm19.683,1.894v-1.894h-10.756v15.241h2.177v-6.162H-1154v-1.873h-7.642v-5.313Zm11.953,13.521a7.722,7.722,0,0,0,8.078-7.795,7.722,7.722,0,0,0-8.078-7.795,7.747,7.747,0,0,0-8.121,7.795A7.747,7.747,0,0,0-1141.106-126.01Zm0-1.938a5.733,5.733,0,0,1-5.944-5.857,5.733,5.733,0,0,1,5.944-5.857,5.722,5.722,0,0,1,5.9,5.857A5.722,5.722,0,0,1-1141.106-127.948Zm16.4,1.764h2.156v-13.347h5.226v-1.894h-12.607v1.894h5.226Zm14.109-1.894V-133h7.642v-1.851h-7.642v-4.681h8.579v-1.894h-10.756v15.241h11.061v-1.894Zm21.338,2.068a7.563,7.563,0,0,0,5.813-2.4l-1.415-1.372a5.667,5.667,0,0,1-4.289,1.829,5.757,5.757,0,0,1-5.988-5.857,5.757,5.757,0,0,1,5.988-5.857,5.648,5.648,0,0,1,4.289,1.807l1.415-1.372a7.531,7.531,0,0,0-5.792-2.373,7.709,7.709,0,0,0-8.078,7.795A7.7,7.7,0,0,0-1089.264-126.01Zm22.035-15.415v6.554h-8.753v-6.554h-2.177v15.241h2.177v-6.793h8.753v6.793h2.177v-15.241Z" transform="translate(2364.721 1175.197)" fill="#535353"/>
      <g id="Group_1_copy" data-name="Group 1 copy" transform="translate(1173.753 924.03)">
        <path id="Shape_1" data-name="Shape 1" d="M90.678,54.483c-.244,0-.653-.572-1.215-1.7-.262-.525-.626-1.172-1.054-1.869-.5-.818-1.069-1.673-1.686-2.542-.714-1.006-1.481-2.008-2.279-2.98-.909-1.107-1.862-2.177-2.832-3.181a42.843,42.843,0,0,0-7.164-6.025A31.953,31.953,0,0,0,70.2,33.812a26.131,26.131,0,0,0-4.648-1.632,47.309,47.309,0,0,0-11.237-1.367,44.932,44.932,0,0,0-5.13.292,40.484,40.484,0,0,0-4.255.717,31.136,31.136,0,0,0-3.236.905,16.169,16.169,0,0,0-2.074.855c-.207.112-.405.221-.6.327A17.533,17.533,0,0,1,36.8,35a9.628,9.628,0,0,1-2.761.6,5.04,5.04,0,0,0-1.844.346,1.539,1.539,0,0,0-.632.829h0a8.3,8.3,0,0,1-.506.943,7.473,7.473,0,0,1-1.518,1.558,22.358,22.358,0,0,1-2.98,2.013,36.4,36.4,0,0,1-9.952,3.788c-2.329.531-4.123.892-5.646,1.135a27.093,27.093,0,0,1-4.217.4,10.709,10.709,0,0,1-2.917-.355,7.187,7.187,0,0,1-2.3-1.108A3.728,3.728,0,0,1,.4,43.885a3.422,3.422,0,0,1-.391-1.446A5.374,5.374,0,0,1,.63,39.806a6.9,6.9,0,0,1,1.5-2.005,8.813,8.813,0,0,0,1.357-1.628A18.115,18.115,0,0,0,4.9,33.606a25.555,25.555,0,0,0,2.064-7.4,18.24,18.24,0,0,1,.826-3.771,10.282,10.282,0,0,1,.651-1.492A7.706,7.706,0,0,1,9.271,19.7a6.671,6.671,0,0,1,1.025-1,6.935,6.935,0,0,1,1.235-.769,8.561,8.561,0,0,1,1.46-.546,11.947,11.947,0,0,1,1.7-.332A15.914,15.914,0,0,0,17.5,16.012a15.334,15.334,0,0,0,2.376-1.434,16.263,16.263,0,0,0,1.983-1.726,18.5,18.5,0,0,0,1.633-1.921,22.031,22.031,0,0,0,1.326-2.02c.367-.63.724-1.31,1.062-2.021.631-1.329,1.114-2.6,1.5-3.66a7,7,0,0,1,1.4-2.467A2.222,2.222,0,0,1,30.386,0a2.591,2.591,0,0,1,1.479.532A6.389,6.389,0,0,1,33.3,2.006,17.656,17.656,0,0,1,35.05,5.562a50.755,50.755,0,0,1,1.855,5.79c.289,1.12.539,2.239.744,3.326.221,1.172.39,2.315.5,3.4a23.858,23.858,0,0,1-.075,6.357,12.239,12.239,0,0,0-.187,1.583,1.181,1.181,0,0,0,.1.676.107.107,0,0,0,.084.042c.068,0,.152-.063.251-.189a8.963,8.963,0,0,0,1.023-2.269,31.016,31.016,0,0,0,1.066-4.143A31.853,31.853,0,0,0,40.973,15a20.572,20.572,0,0,0-.489-5.244,3.637,3.637,0,0,1-.045-.59,1.566,1.566,0,0,1,.253-.946.631.631,0,0,1,.508-.225,1.212,1.212,0,0,1,.311.045c.012,0,1.219.213,3.211.683,1.167.275,2.369.584,3.572.918,1.5.417,3.015.874,4.49,1.358A87.931,87.931,0,0,1,63.342,15.2c1.93.925,3.772,1.911,5.477,2.932a53.184,53.184,0,0,1,5.216,3.541,49.676,49.676,0,0,1,4.5,3.923,43.062,43.062,0,0,1,3.592,4.014,39.6,39.6,0,0,1,2.8,4.053,38.83,38.83,0,0,1,2.113,4.04,50.525,50.525,0,0,1,3.841,14.987s.047.36.06.752a4.085,4.085,0,0,1-.015.581.767.767,0,0,1-.125.4A.151.151,0,0,1,90.678,54.483ZM3.782,38.837a.673.673,0,0,0-.393.129.668.668,0,0,0,.394,1.207.673.673,0,0,0,.394-.129.668.668,0,0,0-.394-1.207Zm12.79-16.345a3.267,3.267,0,1,0,.951.143A3.235,3.235,0,0,0,16.573,22.493Z" transform="translate(0)" fill="url(#linear-gradient)"/>
        <path id="Shape_2" data-name="Shape 2" d="M3353.487,1234.56s11.3-6.345,27.014-1.893,22.693,17.936,25.008,28.524c0,0-1.517,11.5-7.487,21.116s-19.462,16.334-19.462,16.334-4.091,2.045.095-1.445,10.688-14.852,9.956-26.083-7.6-20.708-12.509-25.068-14.912-8.613-20.527-9.808C3351.325,1235.251,3352.994,1234.756,3353.487,1234.56Z" transform="translate(-3314.929 -1197.655)" fill="url(#linear-gradient-2)"/>
        <path id="Shape_3" data-name="Shape 3" d="M3136.633,1312.356s15.855,4.622,22.518,17.876a34.174,34.174,0,0,1,1.113,29.044,27.605,27.605,0,0,1-13.345,14.358,38.645,38.645,0,0,1-26.5-2.919c-13.862-6.855-16.863-15.829-16.863-15.829s-1.42-2.984.87-.463,8.047,9.541,20.677,8.679c13.835-.944,21.838-10.765,23.819-18.684s1.413-19.429-11.4-29.969C3133.124,1311.017,3136.366,1312.274,3136.633,1312.356Z" transform="translate(-3092.475 -1269.821)" fill="url(#linear-gradient-3)"/>
        <path id="Shape_6" data-name="Shape 6" d="M3122.871,1385.978s-7.588,10.263-20.387,10.549a22.1,22.1,0,0,1-20.331-11.786c-1.82-3.551-4.992-15.483,2.862-24.95,7.519-9.063,21.2-8.444,27.95-2.044,7.207,6.838,5.325,20.282-3.992,23.191-7.933,2.238-12.141-3.667-11.759-6.384,0,0,.039-.487.229-.552.092-.031.376-.075.4.309.141,2.406,3.147,5.971,8.066,4.76,6.064-1.493,7.83-9.222,5.2-13.728-2.495-4.272-12.741-9.038-19.059.328-5.671,8.408-2.386,21.417,7.649,24.7s19.023-1.725,22.263-4.763S3123.155,1385.653,3122.871,1385.978Z" transform="translate(-3071.833 -1306.262)" fill="url(#linear-gradient-4)"/>
      </g>
    </g>
  </g>
</svg>
